<?xml version="1.0" standalone="no"?>
<!DOCTYPE svg PUBLIC "-//W3C//DTD SVG 20010904//EN"
 "http://www.w3.org/TR/2001/REC-SVG-20010904/DTD/svg10.dtd">
<svg version="1.0" xmlns="http://www.w3.org/2000/svg"
 width="128.000000pt" height="128.000000pt" viewBox="0 0 128.000000 128.000000"
 preserveAspectRatio="xMidYMid meet">
<metadata>
Created by potrace 1.16, written by Peter Selinger 2001-2019
</metadata>
<g transform="translate(0.000000,128.000000) scale(0.100000,-0.100000)"
fill="#000000" stroke="none">
<path d="M230 1085 l0 -105 25 0 c25 0 25 1 25 80 l0 80 175 0 175 0 0 25 0
25 -200 0 -200 0 0 -105z"/>
<path d="M660 1165 c0 -24 3 -25 60 -25 l60 0 0 -110 0 -110 110 0 110 0 0
-35 c0 -31 3 -35 25 -35 23 0 25 3 25 52 l0 53 -117 117 -118 118 -77 0 c-77
0 -78 0 -78 -25z"/>
<path d="M578 918 c-30 -10 -36 -29 -15 -46 8 -7 18 -7 27 -2 49 31 141 -7
172 -70 23 -44 24 -120 3 -120 -11 0 -15 12 -15 46 0 80 -38 123 -108 124 -24
0 -52 -5 -63 -10 -28 -16 -49 -63 -49 -115 0 -35 -4 -45 -16 -45 -13 0 -15 10
-13 63 4 57 2 62 -17 65 -23 3 -34 -27 -34 -94 0 -24 -5 -34 -15 -34 -13 0
-15 -26 -15 -175 l0 -175 80 0 c79 0 80 0 80 25 0 24 -3 25 -60 25 l-60 0 0
125 0 125 180 0 180 0 0 -125 0 -125 -105 0 -105 0 0 -25 0 -25 125 0 125 0 0
175 c0 149 -2 175 -15 175 -11 0 -15 11 -15 38 0 146 -127 246 -252 200z"/>
<path d="M125 795 c-51 -50 -20 -145 48 -145 18 0 34 -11 53 -35 19 -26 34
-35 55 -35 24 0 29 4 29 25 0 14 -6 25 -13 25 -8 0 -22 9 -32 20 -15 17 -16
24 -7 46 19 40 14 63 -17 95 -38 37 -82 39 -116 4z"/>
<path d="M1039 791 c-31 -32 -36 -55 -17 -95 9 -22 8 -29 -7 -46 -10 -11 -24
-20 -32 -20 -7 0 -13 -11 -13 -25 0 -21 5 -25 29 -25 21 0 36 9 55 35 20 25
35 35 55 35 66 0 96 96 46 145 -34 35 -78 33 -116 -4z"/>
<path d="M604 592 c-6 -4 -17 -18 -23 -30 -14 -27 0 -76 25 -86 8 -3 14 -20
14 -41 0 -28 4 -35 20 -35 16 0 20 7 20 35 0 21 6 38 14 41 25 10 39 59 25 86
-15 30 -28 38 -59 38 -14 0 -30 -4 -36 -8z"/>
<path d="M26 569 c-21 -16 -26 -29 -26 -64 0 -35 5 -48 26 -64 34 -27 84 -27
112 -1 12 12 22 25 22 30 0 6 34 10 75 10 73 0 75 1 75 25 0 24 -2 25 -75 25
-41 0 -75 4 -75 10 0 5 -10 18 -22 30 -28 26 -78 26 -112 -1z"/>
<path d="M1142 570 c-12 -12 -22 -25 -22 -30 0 -6 -34 -10 -75 -10 -73 0 -75
-1 -75 -25 0 -24 2 -25 75 -25 41 0 75 -4 75 -10 0 -5 10 -18 22 -30 28 -26
78 -26 112 1 21 16 26 29 26 64 0 35 -5 48 -26 64 -34 27 -84 27 -112 1z"/>
<path d="M227 395 c-20 -25 -36 -35 -56 -35 -67 0 -99 -106 -45 -149 38 -30
80 -27 115 8 31 32 36 55 17 95 -9 22 -8 29 7 46 10 11 24 20 32 20 7 0 13 11
13 25 0 40 -48 34 -83 -10z"/>
<path d="M970 405 c0 -14 6 -25 13 -25 8 0 22 -9 32 -20 15 -17 16 -24 7 -46
-19 -40 -14 -63 17 -95 35 -35 77 -38 115 -8 55 43 22 149 -47 149 -18 0 -35
11 -54 35 -35 44 -83 50 -83 10z"/>
<path d="M1000 160 c0 -19 -7 -20 -245 -20 l-245 0 0 -25 0 -25 270 0 270 0 0
45 c0 41 -2 45 -25 45 -18 0 -25 -5 -25 -20z"/>
</g>
</svg>
