<?xml version="1.0" standalone="no"?>
<!DOCTYPE svg PUBLIC "-//W3C//DTD SVG 20010904//EN" "http://www.w3.org/TR/2001/REC-SVG-20010904/DTD/svg10.dtd">
<svg version="1.0" xmlns="http://www.w3.org/2000/svg" width="128.000000pt" height="128.000000pt" viewBox="0 0 128.000000 128.000000" preserveAspectRatio="xMidYMid meet">
    <metadata>
        Created by potrace 1.16, written by Peter Selinger 2001-2019
    </metadata>
    <g transform="translate(0.000000,128.000000) scale(0.100000,-0.100000)" fill="#1eb858" stroke="none">
        <path d="M320 1220 c-18 -18 -20 -33 -20 -180 0 -153 1 -160 20 -160 19 0 20 7 20 140 0 196 -27 180 310 180 l270 0 0 -80 c0 -109 11 -120 120 -120 l80 0 0 -380 c0 -367 -1 -381 -20 -400 -19 -19 -33 -20 -200 -20 -173 0 -180 -1 -180 -20 0 -19 7 -20 200 -20 187 0 201 1 220 20 19 19 20 33 20 437 l0 417 -42 43 -42 43 42 0 c29 0 48 -6 62 -20 19 -19 20 -33 20 -480 0 -447 -1 -461 -20 -480 -19 -19 -33 -20 -240 -20 -213 0 -220 -1 -220 -20 0 -19 7 -20 240 -20 227 0 241 1 260 20 19 19 20 33 20 520 0 590 11 540 -123 540 l-83 0 -39 40 -39 40 -308 0 c-295 0 -309 -1 -328 -20z"/>
        <path d="M412 1048 c-7 -7 -12 -37 -12 -68 0 -65 11 -80 60 -80 49 0 60 15 60 80 0 31 -5 61 -12 68 -16 16 -80 16 -96 0z"/>
        <path d="M652 1048 c-7 -7 -12 -37 -12 -68 0 -65 11 -80 60 -80 49 0 60 15 60 80 0 31 -5 61 -12 68 -16 16 -80 16 -96 0z"/>
        <path d="M812 1048 c-7 -7 -12 -37 -12 -68 0 -65 11 -80 60 -80 49 0 60 15 60 80 0 31 -5 61 -12 68 -16 16 -80 16 -96 0z"/>
        <path d="M632 848 c-7 -7 -12 -37 -12 -68 0 -65 11 -80 60 -80 49 0 60 15 60 80 0 31 -5 61 -12 68 -16 16 -80 16 -96 0z"/>
        <path d="M872 848 c-7 -7 -12 -37 -12 -68 0 -65 11 -80 60 -80 49 0 60 15 60 80 0 31 -5 61 -12 68 -16 16 -80 16 -96 0z"/>
        <path d="M258 824 c-34 -14 -36 -18 -26 -40 13 -28 15 -28 48 -9 36 21 124 19 168 -4 72 -37 101 -91 109 -207 l6 -84 -31 0 -30 0 -4 95 c-3 91 -4 96 -35 127 -29 28 -40 33 -98 36 -65 4 -65 4 -105 -36 -36 -36 -40 -44 -40 -91 0 -50 0 -51 -31 -51 l-30 0 7 48 c7 49 36 116 55 127 7 5 5 13 -7 26 -16 18 -18 18 -37 2 -36 -33 -57 -93 -57 -170 l0 -73 70 0 70 0 0 33 c0 51 19 105 43 122 12 8 37 15 57 15 69 0 100 -48 100 -157 l0 -53 -198 0 c-141 0 -201 -3 -210 -12 -7 -7 -12 -29 -12 -50 0 -31 4 -38 20 -38 13 0 20 7 20 18 0 40 15 42 280 42 186 0 259 -3 268 -12 17 -17 17 -319 0 -336 -17 -17 -519 -17 -536 0 -8 8 -12 52 -12 130 0 111 -1 118 -20 118 -19 0 -20 -7 -20 -138 0 -94 4 -142 12 -150 17 -17 599 -17 616 0 17 17 17 399 0 416 -7 7 -25 12 -40 12 l-28 0 0 93 c0 68 -5 102 -19 132 -23 49 -74 99 -123 119 -47 20 -152 20 -200 0z"/>
        <path d="M752 648 c-7 -7 -12 -37 -12 -68 0 -65 11 -80 60 -80 49 0 60 15 60 80 0 65 -11 80 -60 80 -20 0 -41 -5 -48 -12z"/>
        <path d="M912 648 c-7 -7 -12 -37 -12 -68 0 -65 11 -80 60 -80 49 0 60 15 60 80 0 65 -11 80 -60 80 -20 0 -41 -5 -48 -12z"/>
        <path d="M832 428 c-7 -7 -12 -37 -12 -68 0 -65 11 -80 60 -80 49 0 60 15 60 80 0 65 -11 80 -60 80 -20 0 -41 -5 -48 -12z"/>
    </g>
</svg>
