<?xml version="1.0" standalone="no"?>
<!DOCTYPE svg PUBLIC "-//W3C//DTD SVG 20010904//EN"
 "http://www.w3.org/TR/2001/REC-SVG-20010904/DTD/svg10.dtd">
<svg version="1.0" xmlns="http://www.w3.org/2000/svg"
 width="128.000000pt" height="128.000000pt" viewBox="0 0 128.000000 128.000000"
 preserveAspectRatio="xMidYMid meet">
<metadata>
Created by potrace 1.16, written by Peter Selinger 2001-2019
</metadata>
<g transform="translate(0.000000,128.000000) scale(0.100000,-0.100000)"
fill="#1eb858" stroke="none">
<path d="M872 1268 c-17 -17 -15 -73 3 -88 10 -8 15 -30 15 -61 l0 -48 -77 37
c-73 35 -84 37 -173 37 l-95 0 -130 -61 c-72 -34 -143 -65 -160 -69 -39 -9
-45 -19 -45 -87 l0 -58 -45 0 c-32 0 -55 7 -76 22 -28 21 -32 21 -57 7 -22
-12 -27 -22 -27 -54 0 -32 5 -42 27 -54 25 -14 29 -14 57 7 21 15 44 22 76 22
l45 0 0 -50 c0 -56 -15 -65 -50 -30 -27 27 -75 26 -94 -2 -21 -30 -20 -54 4
-78 26 -26 64 -26 90 0 34 34 50 26 50 -25 0 -64 19 -142 48 -204 28 -56 46
-71 64 -53 8 8 2 31 -23 84 l-34 73 -3 216 -3 215 43 13 c24 7 88 36 143 64
100 52 100 52 195 52 95 0 95 0 195 -51 55 -29 119 -57 142 -64 l42 -13 3 -91
c3 -83 5 -91 23 -91 18 0 20 8 23 90 4 126 3 128 -68 149 l-60 18 0 59 c0 46
5 64 20 79 41 41 13 100 -46 100 -17 0 -35 -5 -42 -12z"/>
<path d="M584 1070 c-72 -15 -114 -37 -114 -61 0 -18 4 -20 28 -16 15 3 47 13
72 22 66 25 116 15 256 -51 l123 -59 1 -145 c0 -170 -14 -241 -63 -309 -38
-53 -125 -126 -197 -165 l-50 -27 -50 27 c-72 39 -159 112 -197 165 -48 68
-63 139 -63 309 l0 145 60 27 c57 25 75 48 50 63 -11 7 -112 -30 -138 -49 -11
-8 -13 -54 -10 -215 3 -202 4 -207 31 -263 37 -75 144 -174 242 -225 l75 -38
75 38 c98 51 205 150 242 225 28 57 28 57 28 266 0 176 -2 210 -15 216 -152
76 -236 112 -280 120 -29 5 -55 10 -59 9 -3 -1 -24 -5 -47 -9z"/>
<path d="M613 843 c-32 -6 -73 -59 -73 -94 0 -19 -5 -29 -15 -29 -25 0 -35
-36 -35 -129 0 -117 4 -121 150 -121 146 0 150 4 150 121 0 93 -10 129 -35
129 -10 0 -15 10 -15 30 0 56 -66 104 -127 93z"/>
<path d="M1018 638 c-3 -87 -9 -113 -32 -166 -38 -83 -161 -201 -269 -257
l-77 -40 -76 40 c-41 22 -102 63 -134 92 -32 29 -68 53 -79 53 -36 0 -24 -36
24 -76 45 -36 45 -37 45 -100 0 -51 -4 -68 -20 -84 -41 -41 -13 -100 46 -100
17 0 35 5 42 12 17 17 15 73 -3 88 -9 8 -15 30 -15 59 l0 47 76 -38 c42 -21
84 -38 93 -38 31 0 146 62 218 117 86 65 141 131 174 207 20 45 28 56 48 56
14 0 32 -6 40 -14 32 -28 59 -29 86 -2 32 32 32 50 0 82 -27 27 -54 26 -86 -2
-8 -8 -24 -14 -35 -14 -17 0 -19 6 -16 50 l4 50 44 0 c31 0 50 -6 64 -20 22
-22 51 -26 81 -10 14 8 19 21 19 50 0 29 -5 42 -19 50 -30 16 -59 12 -81 -10
-14 -14 -33 -20 -65 -20 -38 0 -45 3 -45 20 0 14 -7 20 -24 20 -23 0 -24 -2
-28 -102z"/>
</g>
</svg>
