<?xml version="1.0" standalone="no"?>
<!DOCTYPE svg PUBLIC "-//W3C//DTD SVG 20010904//EN"
 "http://www.w3.org/TR/2001/REC-SVG-20010904/DTD/svg10.dtd">
<svg version="1.0" xmlns="http://www.w3.org/2000/svg"
 width="128.000000pt" height="128.000000pt" viewBox="0 0 128.000000 128.000000"
 preserveAspectRatio="xMidYMid meet">
<metadata>
Created by potrace 1.16, written by Peter Selinger 2001-2019
</metadata>
<g transform="translate(0.000000,128.000000) scale(0.100000,-0.100000)"
fill="#1eb858" stroke="none">
<path d="M160 1080 c-19 -19 -20 -33 -20 -220 l0 -200 -40 0 c-27 0 -47 -7
-60 -20 -19 -19 -20 -33 -20 -220 0 -256 -12 -240 180 -240 167 0 180 6 180
90 l0 50 84 0 c79 0 84 -1 79 -20 -4 -16 -14 -20 -44 -20 l-39 0 0 -50 0 -50
380 0 c367 0 381 1 400 20 19 19 20 33 20 320 0 287 -1 301 -20 320 -13 13
-33 20 -60 20 l-40 0 0 100 c0 154 49 140 -500 140 -447 0 -461 -1 -480 -20z
m920 -40 c17 -17 20 -33 20 -100 l0 -80 -160 0 c-214 0 -200 15 -200 -220 l0
-180 -180 0 -180 0 0 80 c0 109 -11 120 -120 120 l-80 0 0 180 c0 167 1 181
20 200 19 19 33 20 440 20 407 0 421 -1 440 -20z m120 -240 c19 -19 20 -33 20
-280 0 -247 -1 -261 -20 -280 -19 -19 -33 -20 -200 -20 -167 0 -181 1 -200 20
-19 19 -20 33 -20 280 0 247 1 261 20 280 19 19 33 20 200 20 167 0 181 -1
200 -20z m-1071 -210 c10 -29 12 -30 71 -30 59 0 61 1 71 30 13 35 22 37 49
10 18 -18 20 -33 20 -180 0 -204 3 -200 -140 -200 -143 0 -140 -4 -140 200 0
147 2 162 20 180 27 27 36 25 49 -10z m611 -200 l0 -30 -180 0 -180 0 0 30 0
30 180 0 180 0 0 -30z"/>
<path d="M800 550 l0 -250 200 0 200 0 0 250 0 250 -200 0 -200 0 0 -250z
m360 0 l0 -210 -160 0 -160 0 0 210 0 210 160 0 160 0 0 -210z"/>
</g>
</svg>
