<?xml version="1.0" standalone="no"?>
<!DOCTYPE svg PUBLIC "-//W3C//DTD SVG 20010904//EN"
 "http://www.w3.org/TR/2001/REC-SVG-20010904/DTD/svg10.dtd">
<svg version="1.0" xmlns="http://www.w3.org/2000/svg"
 width="128.000000pt" height="128.000000pt" viewBox="0 0 128.000000 128.000000"
 preserveAspectRatio="xMidYMid meet">
<metadata>
Created by potrace 1.16, written by Peter Selinger 2001-2019
</metadata>
<g transform="translate(0.000000,128.000000) scale(0.100000,-0.100000)"
fill="#1eb858" stroke="none">
<path d="M535 1110 c-256 -55 -435 -272 -435 -527 0 -90 15 -161 50 -238 30
-69 84 -135 109 -135 20 0 141 107 141 125 0 7 -15 38 -34 70 -33 54 -56 128
-56 179 0 59 41 155 87 207 68 75 144 109 245 109 70 0 84 -4 153 -39 83 -43
108 -44 103 -2 -4 34 -90 87 -170 103 l-58 12 0 39 0 39 42 -7 c323 -55 498
-409 343 -694 -16 -28 -31 -51 -35 -51 -4 0 -19 9 -33 20 l-26 21 19 32 c36
61 51 120 51 202 1 99 -11 135 -45 135 -32 0 -37 -19 -24 -82 14 -70 -2 -148
-47 -223 -19 -32 -35 -63 -35 -70 0 -18 123 -125 143 -125 23 0 77 68 107 135
133 295 -6 632 -306 742 -76 27 -218 39 -289 23z m75 -98 l0 -38 -58 -12 c-32
-7 -83 -27 -114 -46 l-57 -34 -26 28 -26 27 38 25 c59 39 98 57 155 72 83 23
88 22 88 -22z m-302 -155 l22 -23 -36 -70 c-19 -38 -38 -88 -41 -112 -6 -41
-6 -42 -46 -42 l-40 0 7 47 c9 65 84 223 107 223 3 0 15 -10 27 -23z m-55
-358 c3 -23 19 -68 35 -101 l29 -59 -25 -19 c-14 -11 -28 -20 -33 -20 -15 0
-79 144 -85 193 l-7 47 40 0 c40 0 40 -1 46 -41z"/>
<path d="M853 773 c-312 -211 -313 -212 -313 -279 0 -59 36 -94 98 -94 38 0
49 5 76 34 70 73 276 352 276 372 0 18 -17 34 -35 34 -2 0 -48 -30 -102 -67z"/>
<path d="M522 331 c-8 -4 -12 -19 -10 -32 3 -24 4 -24 128 -24 124 0 125 0
128 24 2 13 -2 28 -10 32 -7 5 -60 9 -118 9 -58 0 -111 -4 -118 -9z"/>
<path d="M370 209 c-9 -15 -8 -24 1 -35 9 -11 57 -14 270 -14 234 0 259 2 268
17 6 11 6 24 0 35 -9 17 -31 18 -269 18 -252 0 -260 -1 -270 -21z"/>
</g>
</svg>
